<?xml version="1.0" encoding="utf-8"?>
<!-- Generator: Adobe Illustrator 24.3.0, SVG Export Plug-In . SVG Version: 6.00 Build 0)  -->
<svg version="1.1" id="Layer_1" xmlns="http://www.w3.org/2000/svg" xmlns:xlink="http://www.w3.org/1999/xlink" x="0px" y="0px"
	 viewBox="0 0 763.8 600.5" style="enable-background:new 0 0 763.8 600.5;" xml:space="preserve">
<style type="text/css">
	.st0{fill:none;stroke:#808080;stroke-width:2;stroke-linecap:round;stroke-linejoin:round;stroke-miterlimit:10;}
	.st1{fill:none;stroke:#EE5586;stroke-width:2;stroke-linecap:round;stroke-linejoin:round;stroke-miterlimit:10;}
	.st2{fill:#FFFFFF;stroke:#EE5586;stroke-linecap:round;stroke-linejoin:round;stroke-miterlimit:10;}
	.st3{fill:none;stroke:#D7D7D7;stroke-linecap:round;stroke-linejoin:round;stroke-miterlimit:10;}
	.st4{fill:none;stroke:#808080;stroke-linecap:round;stroke-linejoin:round;stroke-miterlimit:10;}
	.st5{fill:none;stroke:#FFFFFF;stroke-linecap:round;stroke-linejoin:round;stroke-miterlimit:10;}
</style>
<path class="st0" d="M77,83.3V38.8c0-11,8.9-20,20-20h630.4c11,0,20,8.9,20,20v461.1c0,11-8.9,20-20,20H691"/>
<path class="st0" d="M40.6,83.3H671c11,0,20,8.9,20,20v461.1c0,11-8.9,20-20,20H40.6c-11,0-20-8.9-20-20V103.2
	C20.6,92.2,29.5,83.3,40.6,83.3z"/>
<path id="svg-concept" class="st1" d="M75.6,171h565.1v58.1H75.6V171z"/>
<path id="svg-concept_1_" class="st2" d="M93.8,114.6c0,2.9-2.4,5.3-5.3,5.3s-5.3-2.4-5.3-5.3s2.4-5.3,5.3-5.3
	C91.5,109.3,93.8,111.7,93.8,114.6z"/>
<path class="st3" d="M119.2,114.6c0,2.9-2.4,5.3-5.3,5.3s-5.3-2.4-5.3-5.3s2.4-5.3,5.3-5.3S119.2,111.7,119.2,114.6z M144.6,114.6
	c0,2.9-2.4,5.3-5.3,5.3s-5.3-2.4-5.3-5.3s2.4-5.3,5.3-5.3S144.6,111.7,144.6,114.6z M22.1,139.5h667.1 M639.7,266.7H199.9"/>
<path class="st4" d="M346.8,302h40.5v35.3h-40.5V302z"/>
<path class="st4" d="M200.4,349.7h40.5V385h-40.5V349.7z"/>
<path class="st4" d="M492.8,349.7h40.5V385h-40.5V349.7z"/>
<path class="st3" d="M75.6,292.2h100.8 M75.6,266.7h100.8 M75.6,305h100.8"/>
<path class="st4" d="M261.8,314.5h63.7 M261.8,327.3h53 M406.2,314.5H470 M406.2,327.3h53.1 M550.7,314.5h63.7 M550.7,327.3h53"/>
<path class="st4" d="M261.8,359.8h63.7 M261.8,372.6h53"/>
<path class="st4" d="M406.2,359.8H470 M406.2,372.6h53.1"/>
<path class="st4" d="M550.7,359.8h63.7 M550.7,372.6h53"/>
<path class="st3" d="M639.7,425.8H199.9"/>
<path class="st4" d="M200.4,466.6h40.5v35.3h-40.5V466.6z"/>
<path class="st4" d="M493,466.6h40.5v35.3H493V466.6z"/>
<path class="st4" d="M346.8,514.2h40.5v35.3h-40.5V514.2z"/>
<path class="st4" d="M261.8,479.1h63.7 M261.8,491.9h53"/>
<path class="st4" d="M406.2,479.1H470 M406.2,491.9h53.1"/>
<path class="st4" d="M550.7,479.1h63.7 M550.7,491.9h53"/>
<path class="st4" d="M261.8,524.4h63.7 M261.8,537.2h53 M406.2,524.4H470 M406.2,537.2h53.1 M550.7,524.4h63.7 M550.7,537.2h53"/>
<path class="st3" d="M75.6,317.7h100.8 M75.6,330.5h100.8 M75.6,343.3h100.8"/>
<path class="st4" d="M75.6,356h100.8 M75.6,368.8h100.8"/>
<path class="st3" d="M75.6,397.2h100.8 M75.6,410h100.8 M75.6,422.8h100.8 M75.6,435.5h100.8"/>
<path class="st4" d="M75.6,448.3h100.8 M75.6,461.1h100.8"/>
<path class="st3" d="M75.6,473.9h100.8 M75.6,501.9h44.3 M75.6,514.7h44.3 M75.6,527.4h44.3 M75.6,540.2h44.3 M132.5,501.9h44.2
	 M132.5,514.7h44.2"/>
<path class="st4" d="M132.5,527.4h44.2 M132.5,540.2h44.2"/>
<path class="st5" d="M523.5,212.1c0,0.4-0.4,0.7-0.9,0.7h-88.2c-0.5,0-0.9-0.3-0.9-0.7v-22.8c0-0.4,0.4-0.7,0.9-0.7h88.2
	c0.5,0,0.9,0.3,0.9,0.7V212.1z M612.3,212.1c0,0.4-0.3,0.7-0.7,0.7h-67.8c-0.4,0-0.7-0.3-0.7-0.7v-22.8c0-0.4,0.3-0.7,0.7-0.7h67.8
	c0.4,0,0.7,0.3,0.7,0.7V212.1z"/>
<path class="st5" d="M144.3,200.3l0.1-0.3c0-0.2,0-0.3-0.1-0.4c-0.1-0.1-0.2-0.2-0.4-0.2H134c-0.4,0-0.8-0.1-1.2-0.3
	c-0.3-0.2-0.6-0.4-0.9-0.7c-0.2-0.3-0.4-0.6-0.5-1s-0.1-0.8,0-1.2l0.6-2.3h13.4c0.8,0,1.6,0.2,2.3,0.5c0.7,0.4,1.3,0.8,1.7,1.4
	c0.5,0.6,0.8,1.3,0.9,2c0.2,0.8,0.2,1.5,0,2.4l-2.4,8.9c-0.2,0.9-0.7,1.7-1.5,2.2c-0.7,0.6-1.6,0.9-2.5,0.9H134
	c-0.9,0-1.7-0.2-2.4-0.6c-0.7-0.4-1.3-0.9-1.8-1.5s-0.8-1.3-1-2.1s-0.2-1.6,0.1-2.4l0.1-0.5c0.1-0.6,0.4-1.1,0.7-1.6
	s0.7-0.9,1.2-1.2c0.4-0.3,0.9-0.6,1.5-0.8c0.5-0.2,1.1-0.3,1.7-0.3h8.3l-0.6,2.3c-0.2,0.5-0.5,1-0.9,1.3s-1,0.5-1.5,0.5h-3.7
	c-0.3,0-0.6,0.2-0.7,0.5c-0.1,0.2,0,0.4,0.1,0.6c0.1,0.2,0.3,0.3,0.5,0.3h6c0.2,0,0.4-0.1,0.6-0.2c0.2-0.1,0.3-0.3,0.3-0.5l0.1-0.2
	L144.3,200.3L144.3,200.3z M102.9,194h6.9l-1.1,4.1c-0.2,0.6-0.5,1-0.9,1.4c-0.4,0.3-1,0.5-1.6,0.5H103c-0.7,0-1.4,0.2-1.9,0.6
	c-0.6,0.4-0.9,1-1.2,1.7c-0.1,0.5-0.2,1.1,0,1.6c0.1,0.5,0.3,0.9,0.6,1.3s0.6,0.7,1.1,0.9c0.4,0.2,0.9,0.3,1.5,0.3h1.9
	c0.4,0,0.7,0.1,0.9,0.4c0.2,0.3,0.3,0.6,0.2,1l-1.2,4.5h-2.1c-1.5,0-2.8-0.3-4-1c-1.2-0.6-2.2-1.5-3.1-2.5c-0.8-1.1-1.4-2.3-1.7-3.6
	c-0.3-1.3-0.3-2.7,0.1-4.2l0.1-0.5c0.3-1,0.7-1.9,1.2-2.7c0.6-0.8,1.2-1.5,2-2.1s1.6-1,2.5-1.4C100.9,194.1,101.9,194,102.9,194
	 M106.4,212.3l6-22.5c0.2-0.6,0.5-1,0.9-1.4c0.4-0.3,1-0.5,1.6-0.5h6.4c1.5,0,2.8,0.3,4,1c1.2,0.6,2.2,1.5,3.1,2.5
	c0.8,1.1,1.4,2.3,1.7,3.6c0.3,1.4,0.3,2.7-0.1,4.2l-0.1,0.5c-0.3,1-0.7,1.9-1.2,2.7s-1.2,1.5-2,2.1s-1.6,1-2.5,1.4
	c-0.9,0.3-1.9,0.5-2.9,0.5h-5.5l1.1-4.1c0.2-0.5,0.5-1,0.9-1.3s1-0.5,1.6-0.5h1.8c0.7,0,1.4-0.2,2-0.7c0.6-0.4,1-1,1.1-1.7
	c0.1-0.5,0.2-1,0-1.5c-0.1-0.5-0.3-0.9-0.6-1.3s-0.6-0.7-1.1-0.9c-0.4-0.2-0.9-0.4-1.5-0.4h-3.4l-4.4,16.5c-0.2,0.5-0.5,1-0.9,1.3
	s-1,0.5-1.5,0.5L106.4,212.3L106.4,212.3z M162.1,194c1.5,0,2.8,0.3,4.1,1c1.2,0.6,2.2,1.5,3.1,2.5c0.8,1.1,1.4,2.3,1.7,3.6
	c0.3,1.4,0.2,2.7-0.1,4.2l-1.5,5.7c-0.1,0.4-0.3,0.7-0.7,1c-0.3,0.2-0.7,0.4-1.1,0.4h-3.3c-0.4,0-0.7-0.1-0.9-0.4
	c-0.2-0.3-0.3-0.6-0.2-1l1.8-6.9c0.1-0.5,0.2-1,0-1.5c-0.1-0.5-0.3-0.9-0.6-1.3s-0.7-0.7-1.1-0.9c-0.4-0.2-0.9-0.4-1.5-0.4h-3.4
	l-3,11c-0.1,0.4-0.3,0.7-0.7,1c-0.3,0.2-0.7,0.4-1.1,0.4h-3.3c-0.4,0-0.7-0.1-0.9-0.4c-0.2-0.3-0.3-0.6-0.2-1l4.5-16.9h8.4V194z
	 M180,199.8c-0.2,0.2-0.4,0.4-0.5,0.7l-1.4,5.2c-0.1,0.3,0,0.5,0.2,0.8c0.2,0.2,0.4,0.4,0.7,0.4h12.6l-1,3.6c-0.2,0.5-0.5,1-0.9,1.3
	s-1,0.5-1.5,0.5h-11.5c-0.8,0-1.6-0.2-2.3-0.5c-0.7-0.4-1.3-0.8-1.7-1.4c-0.5-0.6-0.8-1.3-0.9-2c-0.2-0.8-0.1-1.5,0.1-2.3l1.9-6.9
	c0.2-0.8,0.5-1.4,0.9-2.1c0.4-0.6,0.9-1.2,1.5-1.6c0.6-0.4,1.2-0.8,1.9-1.1s1.5-0.4,2.2-0.4h8.1c0.8,0,1.6,0.2,2.3,0.5
	c0.7,0.4,1.3,0.8,1.7,1.4c0.5,0.6,0.8,1.3,0.9,2c0.2,0.8,0.1,1.6-0.1,2.3l-0.5,2.1c-0.2,0.9-0.7,1.6-1.5,2.2
	c-0.7,0.6-1.6,0.8-2.5,0.8h-9.2l0.6-2.3c0.1-0.5,0.4-1,0.9-1.3c0.4-0.3,1-0.5,1.6-0.5h3.7c0.3,0,0.6-0.2,0.7-0.5l0.1-0.5
	c0.1-0.2,0-0.4-0.1-0.6c-0.1-0.2-0.3-0.3-0.5-0.3h-5.7C180.5,199.5,180.2,199.6,180,199.8 M191.5,212.3l6.1-23
	c0.1-0.4,0.3-0.7,0.7-1c0.3-0.3,0.7-0.4,1.1-0.4h3.3c0.4,0,0.7,0.1,0.9,0.4c0.2,0.3,0.3,0.6,0.2,1l-4.6,16.9
	c-0.2,0.9-0.6,1.7-1.1,2.4s-1.1,1.4-1.8,1.9s-1.4,0.9-2.3,1.2C193.3,212.2,192.4,212.3,191.5,212.3"/>
<path id="svg-concept_8_" class="st2" d="M632.9,139.5c0,2.9-2.4,5.3-5.3,5.3s-5.3-2.4-5.3-5.3s2.4-5.3,5.3-5.3
	S632.9,136.6,632.9,139.5z"/>

<g>
<path id="svg-concept_2_" class="st1" d="M200.4,302h40.5v35.3h-40.5V302z"/>
<animate accumulate="none" additive="replace" attributeName="opacity" begin="1s" calcMode="linear" dur="2s" fill="remove" repeatCount="indefinite" restart="always" values="0;3;0"/>
</g>

<g>
<path id="svg-concept_3_" class="st1" d="M493,302h40.5v35.3H493V302z"/>
<animate accumulate="none" additive="replace" attributeName="opacity" begin="2s" calcMode="linear" dur="3s" fill="remove" repeatCount="indefinite" restart="always" values="0;3;0"/>
</g>

<path id="svg-concept_4_" class="st1" d="M346.8,349.7h40.5V385h-40.5V349.7z"/>

<g>
<path id="svg-concept_5_" class="st1" d="M346.8,466.6h40.5v35.3h-40.5V466.6z"/>
<animate accumulate="none" additive="replace" attributeName="opacity" begin="1s" calcMode="linear" dur="2s" fill="remove" repeatCount="indefinite" restart="always" values="0;3;0"/>
</g>

<g>
<path id="svg-concept_6_" class="st1" d="M200.4,514.2h40.5v35.3h-40.5V514.2z"/>
<animate accumulate="none" additive="replace" attributeName="opacity" begin="2s" calcMode="linear" dur="3s" fill="remove" repeatCount="indefinite" restart="always" values="0;3;0"/>
</g>

<path id="svg-concept_7_" class="st1" d="M492.8,514.2h40.5v35.3h-40.5V514.2z"/>
</svg>
