<?xml version="1.0" encoding="utf-8"?>
<!-- Generator: Adobe Illustrator 25.3.0, SVG Export Plug-In . SVG Version: 6.00 Build 0)  -->
<svg version="1.1" id="Layer_1" xmlns="http://www.w3.org/2000/svg" xmlns:xlink="http://www.w3.org/1999/xlink" x="0px" y="0px"
	 viewBox="0 0 1500 1500" style="enable-background:new 0 0 1500 1500;" xml:space="preserve">
<style type="text/css">
	.iconcolor0{fill:#EE5586;}
</style>
<path class="iconcolor0" d="M747.1,2C336.9,2,3.2,335.7,3.2,745.8s333.7,743.8,743.8,743.8c410.1,0,743.8-333.7,743.8-743.8
	S1157.2,2,747.1,2z M747.1,1369.6c-249,0-464.4-146.7-564.4-358.2h803.4c52.6,0,93.7-23.8,111.4-88.9l117.2-431
	c8-27.2-143,0.1-151,27.3L959.8,872.8H784.1l88-298c8-27.2-143.8,1-151.8,28.2l-79.2,269.8H465.5l63.1-214.9
	c8-27.2-143.3,1.1-151.3,28.3l-54.8,186.7H136.3c-8.5-41-13-83.4-13-126.9c0-343.9,279.8-623.8,623.8-623.8
	c343.9,0,623.8,279.8,623.8,623.8C1370.8,1089.8,1091,1369.6,747.1,1369.6z"/>
</svg>
