<?xml version="1.0" encoding="utf-8"?>
<!-- Generator: Adobe Illustrator 24.3.0, SVG Export Plug-In . SVG Version: 6.00 Build 0)  -->
<svg version="1.1" id="Layer_1" xmlns="http://www.w3.org/2000/svg" xmlns:xlink="http://www.w3.org/1999/xlink" x="0px" y="0px"
	 viewBox="0 0 86.1 115.5" style="enable-background:new 0 0 86.1 115.5;" xml:space="preserve">
<style type="text/css">
	.st0{fill:#FFFFFF;}
</style>
<path class="st0" d="M25.8,87.5c0,0,0-10.3,0-12.8s-3.7-4.1-5.7-2.2S3,89.7,1.8,90.9c-1.2,1.2-1.2,3,0,4.2s17,17,18.7,18.7
	c1.7,1.7,5.3-0.1,5.3-2.2s0-13.2,0-13.2s56.6,0,57.5,0c0.9,0,2.8-1.3,2.8-3c0-1.7,0-3.8,0-5.1s-1.2-2.8-3.4-2.8S25.8,87.5,25.8,87.5
	z"/>
<path class="st0" d="M75.4,0.7c-1.2,0-17.4,0-32.2,0v0H32.7C18.9,0.6,7.6,11.9,7.6,25.7s11.3,25.1,25.1,25.1h7.2v18
	c0,0.9,1.3,2.8,3,2.8H48c1.4,0,2.8-1.2,2.8-3.4c0-2.2,0.1-52.6,0.1-56.7h6.8v57.3c0,0.9,1.3,2.8,3,2.8h5.1c1.4,0,2.8-1.2,2.8-3.4
	c0-2.2,0.1-52.6,0.1-56.7h7.6c0.9,0,2.8-1.2,2.8-2.9V3.5C78.9,2.1,77.7,0.7,75.4,0.7z M32.7,39.9c-7.8,0-14.2-6.4-14.2-14.2
	s6.4-14.2,14.2-14.2l7.2,0v28.4H32.7z"/>
</svg>
