<?xml version="1.0" encoding="utf-8"?>
<!-- Generator: Adobe Illustrator 24.3.0, SVG Export Plug-In . SVG Version: 6.00 Build 0)  -->
<svg version="1.1" id="Layer_1" xmlns="http://www.w3.org/2000/svg" xmlns:xlink="http://www.w3.org/1999/xlink" x="0px" y="0px"
	 viewBox="0 0 443 350" style="enable-background:new 0 0 443 350;" xml:space="preserve">
<style type="text/css">
	.st0{fill:url(#SVGID_1_);}
	.st1{fill:url(#SVGID_2_);stroke:#FFFFFF;}
</style>
<g>
	
		<linearGradient id="SVGID_1_" gradientUnits="userSpaceOnUse" x1="46.7131" y1="315.7534" x2="429.1934" y2="12.1405" gradientTransform="matrix(1 0 0 -1 0 352)">
		<stop  offset="0" style="stop-color:#9013FE"/>
		<stop  offset="1" style="stop-color:#6610F2"/>
	</linearGradient>
	<path class="st0" d="M50.9,46.2C50.1,22.5,68.6,0.6,93.6,0.6h255.9c25,0,43.5,21.9,42.6,45.6c-0.8,22.8,0.2,52.3,7.7,76.4
		c7.5,24.1,20,39.4,40.6,41.4v22.2c-20.6,2-33.1,17.2-40.6,41.4c-7.4,24.1-8.5,53.6-7.7,76.4c0.8,23.7-17.7,45.6-42.6,45.6H93.6
		c-25,0-43.5-21.9-42.6-45.6c0.8-22.8-0.2-52.3-7.7-76.4c-7.4-24.1-20-39.4-40.6-41.4v-22.2c20.6-2,33.2-17.2,40.6-41.4
		C50.7,98.5,51.7,69,50.9,46.2z"/>
	
		<linearGradient id="SVGID_2_" gradientUnits="userSpaceOnUse" x1="164.3415" y1="255.3779" x2="249.836" y2="110.788" gradientTransform="matrix(1 0 0 -1 0 352)">
		<stop  offset="0" style="stop-color:#FFFFFF"/>
		<stop  offset="1" style="stop-color:#F1E5FC"/>
	</linearGradient>
	<path class="st1" d="M231,267.7c40.4,0,64.8-19.8,64.8-52.5c0-24.7-17.4-42.6-43.2-45.4v-1c19-3.1,33.8-20.7,33.8-40.4
		c0-28-22.1-46.3-55.8-46.3h-75.9v185.5H231z M184.2,105.7h39.2c21.3,0,33.5,9.5,33.5,26.7c0,18.4-14.1,28.7-39.6,28.7h-33.1
		C184.2,161.1,184.2,105.7,184.2,105.7z M184.2,244.2v-61.1h39c27.9,0,42.4,10.3,42.4,30.3c0,20.1-14.1,30.7-40.7,30.7H184.2z"/>
</g>
</svg>
