<?xml version="1.0" encoding="utf-8"?>
<!-- Generator: Adobe Illustrator 24.3.0, SVG Export Plug-In . SVG Version: 6.00 Build 0)  -->
<svg version="1.1" id="Layer_1" xmlns="http://www.w3.org/2000/svg" xmlns:xlink="http://www.w3.org/1999/xlink" x="0px" y="0px"
	 viewBox="0 0 350 350" style="enable-background:new 0 0 350 350;" xml:space="preserve">
<style type="text/css">
	.st0{fill:#0170BA;}
	.st1{fill:#29A9DF;}
	.st2{fill:#CFCFCF;}
	.st3{fill:#FFFFFF;}
</style>
<g>
	<g id="_x23_000000ff">
		<path d="M100.9,1.8c15.2-0.2,30.4-0.1,45.6-0.1c0,4.8,0.1,9.5-0.1,14.3c-10.5-0.1-21,0-31.6,0.1c-0.1,6.9-0.2,13.8-0.1,20.7
			c10.6,0.1,21.1,0.2,31.7,0.1c0.1,3.9,0.1,7.8,0,11.7c-15.1-0.1-30.3-0.1-45.4,0C100.9,33,100.9,17.4,100.9,1.8z"/>
		<path d="M151.8,1.7c15.4,0,30.8-0.1,46.1,0.1c-0.1,4.5,0,9,0,13.5c-11.2,0-22.4,0-33.6,0.1c0,1.8,0,3.5,0,5.3
			c11.2,0.2,22.3,0.2,33.5,0.3c0,9.2,0,18.4,0.1,27.6c-15.4,0-30.8,0-46.2,0.1c-0.1-3.7-0.1-7.4,0-11.1c10.7,0,21.3,0,32,0
			c0.1-2.4,0.1-4.8,0.1-7.2c-10.7,0-21.4,0-32.1,0C151.8,20.7,151.8,11.2,151.8,1.7z"/>
		<path d="M203.1,1.8c15.3,0,30.7,0,46.1,0c0.1,4.5,0.1,9,0,13.5c-11.2,0-22.5,0.1-33.7,0.1c0,1.8,0.1,3.7,0.2,5.5
			c11.2-0.1,22.4,0.1,33.5,0.2c0.1,9.2,0.2,18.3,0,27.5c-15.4,0-30.8,0-46.2,0c-0.1-3.7-0.1-7.4,0-11.1c10.6,0.1,21.3,0.1,31.9,0
			c0-2.4,0.1-4.8,0.1-7.2c-10.7,0.1-21.4,0-32.1,0C203,20.8,203.1,11.3,203.1,1.8z"/>
	</g>
	<g id="_x23_0170baff">
		<path class="st0" d="M51.4,68c82.4,0,164.8,0,247.2,0c-4.5,51.2-9,102.5-13.7,153.7c-2.8,32.7-5.7,65.5-8.8,98.2
			c-17.6,4.7-35,10-52.6,14.6c-16.1,4.7-32.4,9-48.6,13.7h-0.5c-15.4-4.6-30.9-8.6-46.3-13.2c-18.1-4.9-36.1-10.3-54.3-15.2
			c-2.4-24.5-4.5-49.1-6.6-73.6c-4-45.3-8.3-90.7-12.1-136c-1.3-13.6-2.3-27.3-3.9-41V68 M175.4,88.2c-0.2,9.8,0.1,19.7-0.2,29.5
			c-28.3-0.1-56.5,0-84.8,0c0.5,9.6,1.8,19,3.1,28.5c26.3,1,52.6,0,78.9,0.8c-23,10.3-46.3,20-69.4,30.1c-2,0.9-4.1,1.5-5.9,2.8
			c0.2,10.5,1.9,20.9,2.6,31.4c14-0.1,28-0.3,42-0.3c11.2-0.1,22.5,0.2,33.7-0.1c-0.5,17.3,0.2,34.5-0.4,51.8
			c-7.6-1.1-15-2.8-22.6-4.1c-5.9-1.3-12-2-17.9-3.7c-0.8-8.3-1.4-16.6-2.1-24.9c-1.7-0.5-3.5-0.5-5.2-0.5c-8.5,0.1-17,0-25.5,0.1
			c0.8,15.9,2.3,31.8,4.7,47.6c8.4,2.2,16.8,4.3,25.1,6.6c12.8,3.5,25.8,6.4,38.6,9.8c1.5,0.3,3.1,0.9,4.7,0.8
			c0.9,10.5,0.2,21,0.4,31.5c3-0.5,5.9-1.2,8.7-2.1c24.3-6.6,48.6-13.3,72.8-20c1.2-9.5,1.8-19.2,2.7-28.7
			c2.5-29.1,5.1-58.2,7.7-87.3c3.1-33.3,5.8-66.6,8.9-99.9C242.6,88.2,209,88.1,175.4,88.2z"/>
	</g>
	<g id="_x23_29a9dfff">
		<path class="st1" d="M175.4,88.2c33.6-0.1,67.2,0,100.8,0c-3.1,33.3-5.8,66.6-8.9,99.9c-2.6,29.1-5.2,58.2-7.7,87.3
			c-1,9.6-1.5,19.2-2.7,28.7c-24.3,6.7-48.5,13.4-72.8,20c-2.9,0.9-5.8,1.6-8.7,2.1c-0.2-10.5,0.5-21.1-0.4-31.5
			c0.2,0,0.7-0.1,0.9-0.2c22.6-5.7,45-11.9,67.6-17.8c2.8-32,6-63.9,8-96c-19.2,0.1-38.3,0-57.5,0.1c-2.8,0-5.6,0-8.4-0.2
			c10.3-5.3,21.2-9.5,31.8-14.3c10.2-4.6,20.4-8.9,30.6-13.4c2-0.9,4.1-1.7,5.8-3c0.7-2.5,0.6-5.1,0.9-7.7c0.6-8.1,1.6-16.2,2-24.3
			c-27.1-0.2-54.3,0-81.4-0.2C175.5,107.9,175.2,98,175.4,88.2z"/>
		<path class="st1" d="M175.5,211c13.1-0.2,26.2,0.1,39.3,0c-0.7,13.4-1.8,26.8-2.5,40.2c-8,2.6-16.2,4.8-24.3,7.3
			c-4.3,1.3-8.8,2.4-12.9,4.3C175.7,245.6,175,228.3,175.5,211z"/>
	</g>
	<g id="_x23_cfcfcfff">
		<path class="st2" d="M90.4,117.7c28.3,0,56.5-0.1,84.8,0c0.4,31.1-0.1,62.2,0.3,93.3c-11.2,0.2-22.5,0-33.7,0.1
			c-14,0-28,0.2-42,0.3c-0.7-10.5-2.4-20.9-2.6-31.4c1.8-1.3,3.9-2,5.9-2.8c23.1-10.1,46.4-19.8,69.4-30.1
			c-26.3-0.8-52.6,0.2-78.9-0.8C92.2,136.8,90.9,127.3,90.4,117.7z"/>
		<path class="st2" d="M101.9,229.7c8.5-0.1,17-0.1,25.5-0.1c1.8,0,3.5,0,5.2,0.5c0.7,8.3,1.3,16.6,2.1,24.9
			c5.9,1.7,11.9,2.4,17.9,3.7c7.5,1.3,15,3,22.6,4.1c0.7,10.5-0.5,21.1,0.7,31.5c-0.2,0-0.7,0.1-0.9,0.2c-1.6,0.1-3.1-0.4-4.7-0.8
			c-12.8-3.4-25.8-6.3-38.6-9.8c-8.4-2.3-16.8-4.4-25.1-6.6C104.1,261.6,102.7,245.7,101.9,229.7z"/>
	</g>
	<g id="_x23_ffffffff">
		<path class="st3" d="M175.2,117.7c27.2,0.1,54.3,0,81.4,0.2c-0.4,8.1-1.4,16.2-2,24.3c-0.3,2.6-0.2,5.2-0.9,7.7
			c-1.7,1.3-3.8,2.1-5.8,3c-10.2,4.5-20.5,8.8-30.6,13.4c-10.6,4.7-21.4,8.9-31.8,14.3c2.8,0.2,5.6,0.2,8.4,0.2
			c19.2-0.1,38.3,0,57.5-0.1c-2,32-5.2,64-8,96c-22.5,5.9-45,12.1-67.6,17.8c-1.2-10.5,0.1-21-0.7-31.5c4.1-1.9,8.5-3,12.9-4.3
			c8.1-2.4,16.3-4.7,24.3-7.3c0.7-13.4,1.8-26.8,2.5-40.2c-13.1,0.1-26.2-0.3-39.3,0C175.1,179.9,175.6,148.8,175.2,117.7z"/>
	</g>
</g>
</svg>
