<?xml version="1.0" encoding="utf-8"?>
<!-- Generator: Adobe Illustrator 24.3.0, SVG Export Plug-In . SVG Version: 6.00 Build 0)  -->
<svg version="1.1" id="Layer_1" xmlns="http://www.w3.org/2000/svg" xmlns:xlink="http://www.w3.org/1999/xlink" x="0px" y="0px"
	 viewBox="0 0 350 350" style="enable-background:new 0 0 350 350;" xml:space="preserve">
<style type="text/css">
	.st0{fill:#E44D26;}
	.st1{fill:#F16529;}
	.st2{fill:#EBEBEB;}
	.st3{fill:#FFFFFF;}
</style>
<g>
	<path d="M75.6,2.6h15.5v15.4h14.3V2.6h15.5V49h-15.5V33.6H91.2V49H75.6 M141.3,18.1h-13.7V2.6h42.9v15.5h-13.7v31h-15.5 M177.4,2.6
		h16.2l10,16.4l10-16.4h16.2V49h-15.5V26l-10.8,16.7L192.6,26v23h-15.2 M237.4,2.6h15.5v31.1h22V49h-37.4"/>
	<path class="st0" d="M75,319.8L52.8,70.3h244.4L275,319.7l-100.2,27.8"/>
	<path class="st1" d="M175,326.2V90.8h99.9l-19.1,212.8"/>
	<path class="st2" d="M98.2,121.3H175v30.6h-43.2l2.8,31.3H175v30.5h-68.4 M107.9,229.1h30.7l2.2,24.4l34.2,9.2v31.9l-62.8-17.5"/>
	<path class="st3" d="M251.5,121.3h-76.6v30.6h73.8 M245.9,183.2h-71.1v30.6h37.7l-3.6,39.7l-34.1,9.2v31.8l62.6-17.4"/>
</g>
</svg>
