<?xml version="1.0" encoding="utf-8"?>
<!-- Generator: Adobe Illustrator 24.3.0, SVG Export Plug-In . SVG Version: 6.00 Build 0)  -->
<svg version="1.1" id="Layer_1" xmlns="http://www.w3.org/2000/svg" xmlns:xlink="http://www.w3.org/1999/xlink" x="0px" y="0px"
	 viewBox="0 0 350 350" style="enable-background:new 0 0 350 350;" xml:space="preserve">
<style type="text/css">
	.st0{fill:#0F4D40;}
	.st1{fill:#289688;}
	.st2{fill:#FFFFFF;}
</style>
<g>
	<g>
		<path class="st0" d="M207.1,21.9h-62.2c-5.8,0-10.4-4.7-10.4-10.4v-1.1c0-5.8,4.7-10.4,10.4-10.4h62.2c5.8,0,10.4,4.7,10.4,10.4
			v1.1C217.5,17.2,212.9,21.9,207.1,21.9z"/>
		<path class="st0" d="M141.1,48.7V72c0,0-16.7,20.5-43.2,4.4C112.7,42,141.1,48.7,141.1,48.7z"/>
		<path class="st0" d="M211.5,48.7V72c0,0,16.7,20.5,43.2,4.4C239.9,42,211.5,48.7,211.5,48.7z"/>
		<path class="st1" d="M119.6,254.2c-24.2,0-38.9-20.1-32.4-36.2s57.2-143,57.2-143V27.5h63.7V75c0,0,48.5,126.9,54.7,143
			c6.2,16.1-7.8,36.2-31,36.2H119.6z"/>
		<path class="st2" d="M228.8,166.2c4.3,11.3,16,41.7,18,47c5.1,13.2-6.4,29.6-25.3,29.6h-91.8c-19.8,0-31.8-16.4-26.5-29.6
			c2.1-5.3,14.6-36,18.8-47C126.8,154.2,224.5,154.2,228.8,166.2z"/>
		<ellipse class="st2" cx="152.4" cy="131.6" rx="11.3" ry="13.8"/>
		<ellipse class="st0" cx="146.9" cy="182.7" rx="15.3" ry="9.1"/>
		<ellipse class="st0" cx="200.1" cy="182.7" rx="15.3" ry="9.1"/>
		<ellipse class="st2" cx="191.1" cy="120.5" rx="12.7" ry="15.5"/>
	</g>
	<g>
		<path class="st1" d="M2.2,287.3c-1.5-1.4-2.2-3.1-2.2-5.1c0-2,0.7-3.8,2.2-5.1c1.5-1.4,3.3-2.1,5.5-2.1c2.2,0,4,0.7,5.5,2
			c1.5,1.3,2.2,3,2.2,4.9c0,2.1-0.7,3.9-2.2,5.3s-3.3,2.2-5.5,2.2C5.5,289.3,3.7,288.7,2.2,287.3z M1.6,297.8h12v51.3h-12V297.8z"/>
		<path class="st1" d="M50.4,281.8v67.2H37.9v-56.7H23.7v-10.5H50.4z"/>
		<path class="st1" d="M117.4,320.2c1.9,2.7,2.8,5.9,2.8,9.6c0,4.1-1.1,7.7-3.4,10.8c-2.3,3.1-5.5,5.4-9.7,7.1
			c-4.2,1.6-9,2.4-14.5,2.4c-5.5,0-10.3-0.8-14.5-2.4c-4.1-1.6-7.3-4-9.6-7.1c-2.2-3.1-3.4-6.7-3.4-10.8c0-3.6,0.9-6.8,2.8-9.6
			c1.9-2.7,4.5-4.9,8-6.5c-2.7-1.5-4.8-3.4-6.2-5.8c-1.4-2.4-2.2-5.2-2.2-8.3c0-3.8,1-7.1,3.1-9.9c2.1-2.8,5-5,8.8-6.5
			c3.8-1.5,8.1-2.3,13.1-2.3c5,0,9.4,0.8,13.2,2.3c3.8,1.5,6.7,3.7,8.8,6.5c2.1,2.8,3.2,6.1,3.2,9.9c0,3.1-0.7,5.9-2.2,8.3
			c-1.5,2.4-3.6,4.3-6.3,5.9C112.8,315.3,115.5,317.5,117.4,320.2z M103.6,337.3c2.7-1.9,4-4.6,4-8c0-3.3-1.3-6-4-7.9
			c-2.7-1.9-6.3-2.9-10.9-2.9s-8.2,1-10.9,2.9c-2.6,1.9-3.9,4.5-3.9,7.9c0,3.4,1.3,6,3.9,8c2.6,1.9,6.2,2.9,10.9,2.9
			S100.9,339.3,103.6,337.3z M83.4,293.2c-2.3,1.7-3.4,4-3.4,7c0,2.9,1.1,5.2,3.4,6.9c2.3,1.7,5.4,2.5,9.3,2.5c4,0,7.1-0.8,9.4-2.5
			c2.3-1.7,3.5-4,3.5-6.9c0-3-1.2-5.3-3.5-7c-2.3-1.7-5.5-2.5-9.4-2.5C88.8,290.7,85.7,291.5,83.4,293.2z"/>
		<path class="st1" d="M178.5,302.9c3.9,3.8,5.9,9.4,5.9,16.8v29.4h-12v-27.8c0-4.5-1.1-7.9-3.2-10.1c-2.1-2.3-5.1-3.4-9-3.4
			c-4.4,0-7.9,1.3-10.5,4c-2.6,2.7-3.8,6.5-3.8,11.5v25.9h-12v-51.3h11.4v6.6c2-2.4,4.5-4.2,7.5-5.4c3-1.2,6.4-1.8,10.2-1.8
			C169.4,297.2,174.6,299.1,178.5,302.9z"/>
		<path class="st1" d="M250,327.3h-40.2c0.7,3.8,2.5,6.8,5.5,9c3,2.2,6.7,3.3,11.1,3.3c5.6,0,10.3-1.9,13.9-5.6l6.4,7.4
			c-2.3,2.8-5.2,4.8-8.7,6.2c-3.5,1.4-7.5,2.1-11.9,2.1c-5.6,0-10.6-1.1-14.9-3.4c-4.3-2.2-7.6-5.4-9.9-9.4c-2.3-4-3.5-8.5-3.5-13.6
			c0-5,1.1-9.5,3.4-13.5c2.3-4,5.4-7.1,9.5-9.4c4-2.2,8.6-3.4,13.6-3.4c5,0,9.5,1.1,13.4,3.3c3.9,2.2,7,5.3,9.2,9.3
			c2.2,4,3.3,8.6,3.3,13.9C250.2,324.5,250.2,325.7,250,327.3z M214.6,310.2c-2.7,2.3-4.3,5.3-4.8,9.1h29.1c-0.5-3.7-2.1-6.7-4.7-9
			c-2.6-2.3-5.9-3.5-9.8-3.5C220.5,306.8,217.2,308,214.6,310.2z"/>
		<path class="st1" d="M294.9,349.1l-13.2-17.8l-13.3,17.8h-13.3l20-26l-19.1-25.3h13.3l12.6,16.8l12.6-16.8h13l-19.2,25.1
			l20.1,26.2H294.9z"/>
		<path class="st1" d="M350,346.3c-1.4,1.2-3.1,2-5.1,2.6c-2,0.6-4.1,0.9-6.4,0.9c-5.6,0-10-1.5-13.1-4.4c-3.1-2.9-4.6-7.2-4.6-12.9
			v-24.7h-8.5v-9.6h8.5v-11.7h12v11.7h13.7v9.6h-13.7v24.4c0,2.5,0.6,4.4,1.8,5.7c1.2,1.3,3,2,5.3,2c2.7,0,4.9-0.7,6.7-2.1
			L350,346.3z"/>
	</g>
</g>
</svg>
