<?xml version="1.0" encoding="utf-8"?>
<!-- Generator: Adobe Illustrator 24.3.0, SVG Export Plug-In . SVG Version: 6.00 Build 0)  -->
<svg version="1.1" id="Layer_1" xmlns="http://www.w3.org/2000/svg" xmlns:xlink="http://www.w3.org/1999/xlink" x="0px" y="0px"
	 viewBox="0 0 350 350" style="enable-background:new 0 0 350 350;" xml:space="preserve">
<style type="text/css">
	.st0{fill:#FFFFFF;}
	.st1{fill:#EAEBEC;}
	.st2{fill:#F0BE25;}
	.st3{fill:#E4A126;}
	.st4{fill:#0E0E0F;}
</style>
<g>
	<path id="path118" class="st0" d="M52,68.8l0,3.1c0,1.7,5,58.5,11,126.1l11,123l49.4,13.8c27.2,7.6,50,13.9,50.7,13.9
		c0.7,0,23.8-6.2,51.4-13.8c44.2-12.2,50.1-14.1,50.5-15.6c0.4-2.1,22.1-246.2,22.1-248.8l0-1.9H175H52z"/>
	<path id="path88" class="st1" d="M123.9,335.7L74,321.8l-0.7-3.7c-0.6-3.3-22.2-244.8-22.2-248c0-1.2,12.6-1.3,123.9-1.3
		c117.4,0,123.9,0.1,123.8,1.5c0,6-22.4,250.7-23,251.2c-0.7,0.6-97.2,27.5-100.5,28C174.5,349.5,151.3,343.4,123.9,335.7
		L123.9,335.7z M206.5,286.4c16.8-4.6,30.7-8.6,31-8.9c0.3-0.3,2.3-20.2,4.4-44.2c2.1-24,4-45.2,4.3-47.2l0.5-3.5h-36.2h-36.2V198
		v15.4h19.5h19.5l-0.4,1.9c-0.2,1-1,9.9-1.8,19.6c-0.9,10.4-1.9,18.2-2.4,18.7c-0.5,0.5-8.5,3-17.7,5.4l-16.7,4.5v15.7
		c0,10.7,0.3,15.7,0.9,15.7C175.6,294.9,189.7,291.1,206.5,286.4L206.5,286.4z M246.1,163.3c-0.5-4.1-5.4-58.7-5.4-60.8
		c0-1.3-2.9-1.4-32.8-1.4H175v16.1v16.1l14.8,0.6c8.1,0.3,16.7,0.8,19,1.1l4.2,0.5l1,12.6c0.6,6.9,1.2,14,1.5,15.7l0.5,3.1h15.3
		h15.3L246.1,163.3z"/>
	<path id="path80" class="st2" d="M123.5,334.9L74.1,321l-11-123C57,130.4,52,73.6,52,71.9l0-3.1h123h123l0,1.9
		c0,2.6-21.6,246.7-22.1,248.8c-0.3,1.5-6.3,3.4-50.5,15.6c-27.6,7.6-50.7,13.8-51.4,13.8C173.5,348.8,150.7,342.5,123.5,334.9
		L123.5,334.9z M206.5,287c17.1-4.8,31.3-9,31.6-9.5s2.3-21.4,4.5-46.4s4.2-46.2,4.4-47c0.4-1.4-2.5-1.5-52.7-1.5h-53.1l2.3-23.9
		c1.2-13.1,2.3-23.9,2.3-24c0,0,7.8-0.3,17.3-0.6c15.6-0.4,47.6,0.8,48.7,1.9c0.4,0.4,3,26.3,3,29.8c0,1.7,0.2,1.8,16.1,1.8h16.1
		l-0.4-3.5c-0.2-1.9-1.6-17-3-33.5l-2.7-29.9l-62.1-0.2c-49.4-0.2-62.1,0-62.1,0.8c0,0.6-0.4,4.2-0.8,8.1
		c-1.1,9.4-9.2,100.3-9.2,102.8v2h52.9h52.9l-0.5,3.1c-0.3,1.7-1.1,10.4-1.8,19.3c-0.7,8.9-1.6,16.4-1.9,16.7
		c-0.8,0.7-31.9,9.1-33.8,9c-0.9,0-8.9-2-17.8-4.5l-16.2-4.4l-0.6-7c-0.3-3.8-0.8-9.3-1.1-12.2l-0.5-5.2h-15.7h-15.7l0,3.1
		c0.1,5.8,3.8,45.1,4.4,45.6c0.6,0.6,61,17.6,62.9,17.7C174.9,295.7,189.4,291.8,206.5,287L206.5,287z"/>
	<path id="path78" class="st3" d="M123.5,334.9L74.1,321l-11-123C57,130.4,52,73.6,52,71.9l0-3.1h123h123l0,1.9
		c0,2.6-21.6,246.7-22.1,248.8c-0.3,1.5-6.3,3.4-50.5,15.6c-27.6,7.6-50.7,13.8-51.4,13.8C173.5,348.8,150.7,342.5,123.5,334.9
		L123.5,334.9z M215.7,316.4c21.7-6,39.9-11.3,40.4-11.8c0.8-0.8,19.6-206.6,19.5-213.5l0-2.3h-50.3H175v5.8v5.8h-29.1
		c-22.7,0-29.1,0.2-29.1,1c0,0.6-0.4,4.2-0.8,8.1c-1.1,9.4-9.2,100.3-9.2,102.8v2h34.1H175v24.1c0,18.7-0.2,24.1-1,24.1
		c-0.6,0-8.3-2-17.2-4.5l-16.2-4.4l-0.6-7c-0.3-3.8-0.8-9.3-1.1-12.2l-0.5-5.2h-15.7h-15.7l0,3.1c0.1,8.9,4,45.3,4.9,45.9
		c0.5,0.3,15,4.5,32.1,9.2L175,296v15.6c0,8.6,0.3,15.6,0.6,15.6C175.9,327.3,193.9,322.4,215.7,316.4L215.7,316.4z M143.4,159
		c1.2-13,2.3-23.8,2.5-24c0.2-0.2,6.8-0.5,14.7-0.7l14.3-0.4v24.4v24.4h-16.9h-16.9L143.4,159z"/>
	<path id="path76" class="st4" d="M130.1,39.3v-7.9h11.2h11.2V16V0.6h7.9h7.9v23.3v23.3h-19.1h-19.1V39.3z M175.8,40.9v-6.2h10.4
		c5.7,0,10.4-0.2,10.4-0.5s-4.7-5.5-10.4-11.7l-10.4-11.3V5.9V0.6h21.6h21.6v6.2V13l-10.1,0.2l-10.1,0.2l10.6,11.4l10.6,11.4v5.5
		v5.5h-22h-22V40.9z"/>
</g>
</svg>
