<?xml version="1.0" encoding="utf-8"?>
<!-- Generator: Adobe Illustrator 24.3.0, SVG Export Plug-In . SVG Version: 6.00 Build 0)  -->
<svg version="1.1" id="Layer_1" xmlns="http://www.w3.org/2000/svg" xmlns:xlink="http://www.w3.org/1999/xlink" x="0px" y="0px"
	 viewBox="0 0 450 350" style="enable-background:new 0 0 450 350;" xml:space="preserve">
<style type="text/css">
	.st0{fill:#6181B6;}
	.st1{fill:#FFFFFF;}
</style>
<g>
	<path class="st0" d="M225,61.7C101.5,61.7,1.5,112.4,1.5,175S101.5,288.3,225,288.3S448.5,237.6,448.5,175S348.5,61.7,225,61.7z
		 M166.8,197.1c-5.3,5-11.3,7.1-17.8,9.2c-6.5,2.1-14.8,1.7-24.9,1.7h-22.9l-6.3,36.6H68.2L92,120.1h51.4c15.5,0,26.7,4.4,33.8,12.6
		c7.1,8.1,9.2,19.6,6.4,34.2c-1.2,6-3.1,11.6-5.9,16.5C174.9,188.3,171.3,193,166.8,197.1z M244.8,207.9l10.5-52.8
		c1.2-6.2,0.8-10.8-1.3-13c-2.1-2.2-6.5-3.8-13.3-3.8h-21.2l-13.7,69.5h-26.5l23.8-120.7h26.5l-6.3,32.9H247c14.9,0,25.1,3,30.7,8.2
		c5.6,5.2,7.3,12.3,5.1,23.9l-11.1,55.8H244.8z M392.1,167c-1.2,6-3.1,11.5-5.9,16.4c-2.8,5-6.4,9.5-10.9,13.6
		c-5.3,5-11.3,7.1-17.8,9.2c-6.5,2.1-14.8,1.7-24.9,1.7h-22.9l-6.3,36.6h-26.7l23.8-124.4h51.4c15.5,0,26.7,4.4,33.8,12.6
		C392.8,140.8,394.9,152.5,392.1,167z M341.8,138.4h-18.3l-10,51.2h16.3c10.8,0,18.8-1.1,24.1-5.1c5.3-4.1,8.8-10.3,10.7-19.8
		c1.8-9.1,1-16.2-2.4-20C358.7,141,351.9,138.4,341.8,138.4z M133.3,138.4H115l-10,51.2h16.2c10.8,0,18.8-1.1,24.1-5.1
		c5.3-4.1,8.8-10.3,10.7-19.8c1.8-9.1,1-16.2-2.4-20C150.2,141,143.4,138.4,133.3,138.4z"/>
	<path class="st1" d="M166.8,197.1c-5.3,5-11.3,7.1-17.8,9.2c-6.5,2.1-14.8,1.7-24.9,1.7h-22.9l-6.3,36.6H68.2L92,120.1h51.4
		c15.5,0,26.7,4.4,33.8,12.6c7.1,8.1,9.2,19.6,6.4,34.2c-1.2,6-3.1,11.6-5.9,16.5C174.9,188.3,171.3,193,166.8,197.1z M244.8,207.9
		l10.5-52.8c1.2-6.2,0.8-10.8-1.3-13c-2.1-2.2-6.5-3.8-13.3-3.8h-21.2l-13.7,69.5h-26.5l23.8-120.7h26.5l-6.3,32.9H247
		c14.9,0,25.1,3,30.7,8.2c5.6,5.2,7.3,12.3,5.1,23.9l-11.1,55.8H244.8z M392.1,167c-1.2,6-3.1,11.5-5.9,16.4
		c-2.8,5-6.4,9.5-10.9,13.6c-5.3,5-11.3,7.1-17.8,9.2c-6.5,2.1-14.8,1.7-24.9,1.7h-22.9l-6.3,36.6h-26.7l23.8-124.4h51.4
		c15.5,0,26.7,4.4,33.8,12.6C392.8,140.8,394.9,152.5,392.1,167z M341.8,138.4h-18.3l-10,51.2h16.3c10.8,0,18.8-1.1,24.1-5.1
		c5.3-4.1,8.8-10.3,10.7-19.8c1.8-9.1,1-16.2-2.4-20C358.7,141,351.9,138.4,341.8,138.4z M133.3,138.4H115l-10,51.2h16.2
		c10.8,0,18.8-1.1,24.1-5.1c5.3-4.1,8.8-10.3,10.7-19.8c1.8-9.1,1-16.2-2.4-20C150.2,141,143.4,138.4,133.3,138.4z"/>
</g>
</svg>
