<?xml version="1.0" encoding="utf-8"?>
<!-- Generator: Adobe Illustrator 24.3.0, SVG Export Plug-In . SVG Version: 6.00 Build 0)  -->
<svg version="1.1" id="Layer_1" xmlns="http://www.w3.org/2000/svg" xmlns:xlink="http://www.w3.org/1999/xlink" x="0px" y="0px"
	 viewBox="0 0 450 350" style="enable-background:new 0 0 450 350;" xml:space="preserve">
<style type="text/css">
	.st0{fill:#005A9C;}
</style>
<g>
	<path class="st0" d="M106.5,69l38.2,129.7L182.8,69h103.4v12.9L247.3,149c13.7,4.4,24,12.4,31,23.9c7,11.6,10.5,25.2,10.5,40.8
		c0,19.3-5.1,35.5-15.4,48.7s-23.5,19.7-39.9,19.7c-12.3,0-23-3.9-32.1-11.7c-9.1-7.8-15.9-18.4-20.3-31.7l21.6-8.9
		c3.2,8.1,7.3,14.4,12.5,19.1c5.2,4.6,11.3,7,18.3,7c7.4,0,13.6-4.1,18.7-12.4c5.1-8.2,7.6-18.1,7.6-29.7c0-12.8-2.7-22.7-8.2-29.7
		c-6.3-8.2-16.2-12.4-29.7-12.4h-10.5V159l36.8-63.7h-44.5l-2.5,4.3l-54.1,182.5h-2.6l-39.5-132.1L65.8,282.1h-2.6L0,69h27.6
		l38.1,129.7l25.8-87.3L78.9,69L106.5,69L106.5,69L106.5,69z"/>
	<path d="M429.8,69c-5.4,0-10.3,2-14,5.7c-3.9,4-6.1,9.1-6.1,14.4c0,5.3,2.1,10.2,5.9,14.1c3.9,3.9,8.8,6,14.2,6
		c5.3,0,10.4-2.1,14.3-6c3.8-3.7,5.9-8.6,5.9-14.2c0-5.4-2.1-10.4-5.8-14.2C440.4,71.1,435.3,69,429.8,69L429.8,69z M447.3,89.4
		c0,4.6-1.8,9-5.1,12.1c-3.5,3.4-7.8,5.2-12.5,5.2c-4.5,0-8.9-1.8-12.2-5.2c-3.3-3.4-5.1-7.7-5.1-12.2c0-4.6,1.9-9.1,5.3-12.5
		c3.2-3.2,7.5-5,12.2-5c4.8,0,9.1,1.8,12.5,5.2C445.6,80.1,447.3,84.5,447.3,89.4L447.3,89.4z M430.4,77.4h-8.6v22.8h4.3v-9.7h4.3
		l4.6,9.7h4.8l-5.1-10.4c3.3-0.7,5.2-2.9,5.2-6.2C439.9,79.5,436.8,77.4,430.4,77.4L430.4,77.4z M429.6,80.2c4,0,5.9,1.1,5.9,3.9
		c0,2.7-1.8,3.6-5.8,3.6H426v-7.6H429.6L429.6,80.2z"/>
	<path d="M395.9,67.9l4.5,27.2l-15.8,30.3c0,0-6.1-12.9-16.2-20c-8.5-6-14.1-7.3-22.7-5.5c-11.1,2.3-23.8,15.6-29.3,32
		c-6.6,19.6-6.7,29.1-6.9,37.9c-0.4,14,1.8,22.3,1.8,22.3s-9.6-17.8-9.5-43.8c0.1-18.6,3-35.5,11.6-52.1
		c7.6-14.6,18.8-23.4,28.8-24.5c10.3-1.1,18.5,3.9,24.8,9.3c6.6,5.7,13.3,18,13.3,18L395.9,67.9L395.9,67.9z"/>
	<path d="M397.9,221.8c0,0-7,12.5-11.4,17.3c-4.4,4.8-12.2,13.3-21.8,17.6c-9.6,4.2-14.7,5-24.2,4.1c-9.5-0.9-18.4-6.4-21.5-8.7
		c-3.1-2.3-11-9.1-15.5-15.4c-4.5-6.3-11.5-18.9-11.5-18.9s3.9,12.7,6.3,18c1.4,3.1,5.7,12.5,11.8,20.8c5.7,7.7,16.8,20.9,33.7,23.9
		c16.9,3,28.5-4.6,31.3-6.4c2.9-1.8,8.9-6.9,12.7-11c4-4.3,7.8-9.7,9.9-13c1.5-2.4,4-7.2,4-7.2L397.9,221.8L397.9,221.8z"/>
</g>
</svg>
