<?xml version="1.0" encoding="utf-8"?>
<!-- Generator: Adobe Illustrator 24.3.0, SVG Export Plug-In . SVG Version: 6.00 Build 0)  -->
<svg version="1.1" id="Layer_1" xmlns="http://www.w3.org/2000/svg" xmlns:xlink="http://www.w3.org/1999/xlink" x="0px" y="0px"
	 viewBox="0 0 350 350" style="enable-background:new 0 0 350 350;" xml:space="preserve">
<style type="text/css">
	.st0{fill:#7ABF42;}
	.st1{fill:#043855;}
	.st2{fill:#D8DADB;}
</style>
<g>
	<g>
		<path class="st0" d="M270.7,330.5c-9.5,0-17.2-7.7-17.2-17.2s7.7-17.2,17.2-17.2c6.9,0,13.2,4.2,15.8,10.6H298
			c-0.2-0.9-0.5-1.8-0.8-2.7l6.6-6l-3.3-5.8l-8.8,2.4c-0.8-0.9-1.6-1.7-2.5-2.5l2.7-8.4l-5.7-3.4l-6.7,6.1c-1.2-0.4-2.3-0.7-3.5-0.9
			l-2.1-8.6l-6.6-0.1l-2.3,8.7c-1.2,0.2-2.4,0.6-3.7,1l-6.2-6.5l-5.8,3.2l2.4,9c-0.8,0.8-1.6,1.5-2.4,2.4l-8.8-2.4l-3.5,5.6l6.7,6.5
			c-0.3,1.1-0.7,2.2-0.9,3.4l-8.7,2.4l-0.2,6.6l8.9,2.4c0.2,1.2,0.6,2.4,1,3.5l-6.8,5.9l3.1,5.8l9.2-2.5c0.7,0.8,1.5,1.6,2.3,2.3
			l-2.2,9.2l5.6,3.2l6.7-6.5c1,0.3,2,0.6,3.1,0.8l2.2,9h6.6l2.2-9c1.2-0.2,2.4-0.6,3.5-0.9l6.1,6.6l5.9-3.3l-2.4-8.7
			c0.9-0.8,1.8-1.6,2.6-2.6l8.6,2.6l3.4-5.7l-5.4-5.2h-13.7C281.3,328,276.1,330.6,270.7,330.5L270.7,330.5z"/>
		<polygon class="st1" points="0.4,280.6 13,280.6 28.8,330 44.8,280.4 55,280.4 71.1,330 86.8,280.6 99,280.6 77.5,347.8 
			65.4,347.8 49.7,299.8 34.8,347.8 22.4,347.8 		"/>
		<polygon class="st1" points="104.7,280.6 116.1,280.6 116.1,308.3 145.2,308.3 145.2,280.6 156.6,280.6 156.6,347.3 145.2,347.3 
			145.2,319.2 116.1,319.2 116.1,347.3 104.7,347.3 		"/>
		<polygon class="st1" points="164.4,280.6 177.5,280.6 197,308.4 216.5,280.6 230.1,280.6 230.1,347.3 217.7,347.3 217.7,297.9 
			197.1,327.7 176,298 176,347.3 164.4,347.3 		"/>
		<path class="st1" d="M304,330.3v12.5c6.6,3.4,14,5.4,21.4,5.5c11.3,0,24.2-5.6,24.2-18.8c0-13.2-8.1-18.7-20.1-21.9
			c-12-3.2-14.1-5.4-14.1-9.1c0-3.2,2.5-8.1,13.7-8.1c5.9-0.1,11.6,2,16.2,5.7v-12c0,0-9.4-4.5-17.9-4.5c-8.5,0-23.4,2-23.4,20
			c0,23.7,33.2,14.3,33.2,29.4c0,6.1-5.8,8.1-14.1,8C313.8,336.9,304,330.3,304,330.3z"/>
		<path class="st2" d="M290.4,283.9c-6.2,0-11.2,5-11.1,11.2c0,6.2,5,11.2,11.2,11.1c6.2,0,11.1-5,11.1-11.2
			C301.6,288.9,296.6,283.9,290.4,283.9L290.4,283.9z M308.4,298.8c-0.2,0.8-0.3,1.6-0.6,2.3l4.1,4.1l-2.2,3.7l-5.5-1.7
			c-0.5,0.6-1.1,1.2-1.7,1.7l1.5,5.6l-3.7,2.2l-4-4.2c-0.8,0.2-1.5,0.5-2.3,0.6l-1.5,5.9h-4.3l-1.3-5.9c-0.7-0.1-1.3-0.3-2-0.5
			l-4.3,4.2l-3.7-2l1.4-5.9c-0.5-0.5-1-1-1.5-1.5l-5.9,1.6l-1.9-3.7l4.4-3.8c-0.3-0.8-0.5-1.5-0.6-2.3l-5.8-1.5l0.1-4.3l5.6-1.5
			c0.1-0.8,0.3-1.5,0.6-2.2l-4.4-4.2l2.3-3.7l5.7,1.5c0.5-0.5,1-1,1.5-1.5l-1.5-5.8l3.8-2l4.1,4.2c0.8-0.3,1.6-0.5,2.4-0.6l1.5-5.6
			l4.3,0.1l1.3,5.6c0.8,0.2,1.5,0.3,2.3,0.6l4.4-4l3.7,2.2l-1.7,5.5c0.6,0.5,1.1,1,1.6,1.6l5.7-1.6l2.1,3.8l-4.3,3.9
			c0.3,0.9,0.5,1.7,0.7,2.6l5.9,1.5v4.3l-5.9,1.3L308.4,298.8z"/>
	</g>
	<g>
		<path class="st0" d="M156.9,187.5c-30.3,0-54.8-24.7-54.8-54.9c0-30.3,24.7-54.8,54.9-54.8c22.1,0,42.1,13.4,50.5,33.8h36.6
			c-0.7-3-1.5-5.8-2.4-8.5l21.2-19.1l-10.4-18.4l-28.2,7.8c-2.4-2.8-5-5.4-8-8l8.5-26.7l-18.2-11l-21.5,19.5
			c-3.7-1.3-7.4-2.2-11.1-3l-6.7-27.3l-21.2-0.4l-7.2,27.8c-3.9,0.7-7.8,1.9-11.7,3.2l-19.9-20.6L88.8,37.1l7.8,28.6
			c-2.6,2.4-5.2,4.8-7.6,7.6l-28.2-7.8l-11.1,18L71,104.3c-1.1,3.5-2.2,7.1-2.8,10.8l-27.7,7.8L40,144l28.4,7.6
			c0.7,3.9,1.9,7.6,3.2,11.3l-21.7,18.7l10,18.6l29.3-8c2.2,2.6,4.6,5,7.2,7.2l-6.9,29.3l18,10.2l21.3-20.8c3.2,1.1,6.5,1.9,9.8,2.6
			l6.9,28.8h21.2l7.1-28.8c3.9-0.7,7.6-1.9,11.3-3l19.5,21l18.7-10.4l-7.8-27.8c3-2.6,5.8-5.2,8.4-8.2l27.3,8.2l10.8-18.2
			l-17.1-16.7h-43.6C190.9,179.5,174.3,187.7,156.9,187.5L156.9,187.5z"/>
		<path class="st2" d="M219.8,38.8c-19.7,0-35.6,16-35.5,35.8c0,19.7,16,35.6,35.8,35.5c19.7,0,35.5-16,35.5-35.6
			C255.6,54.8,239.5,38.8,219.8,38.8L219.8,38.8z M277.2,86.3c-0.6,2.4-1.1,5-2,7.2l13.2,13l-7.1,11.9l-17.6-5.4
			c-1.7,1.9-3.5,3.7-5.4,5.4l4.8,18l-11.9,6.9l-12.6-13.6c-2.4,0.7-4.8,1.5-7.4,2l-4.6,18.7h-13.7l-4.3-18.7
			c-2.2-0.4-4.3-0.9-6.5-1.7l-13.7,13.6l-11.7-6.5l4.5-18.9c-1.7-1.5-3.3-3.2-4.8-4.8l-18.9,5.2l-6.1-11.7l14.1-12.3
			c-0.9-2.4-1.5-4.8-2-7.4l-18.4-4.8l0.4-13.7l17.8-4.8c0.4-2.4,1.1-4.6,1.9-7.1L151,43.4l7.2-11.7l18.2,4.8
			c1.5-1.7,3.2-3.3,4.8-4.8l-4.8-18.6l12.1-6.5l13,13.4c2.4-0.9,5-1.5,7.6-2l4.8-18l13.7,0.4l4.3,17.8c2.4,0.6,4.8,1.1,7.2,1.9
			L253,7.2l11.9,7.1l-5.6,17.4c1.9,1.7,3.5,3.3,5.2,5.2l18.2-5.2l6.7,12.1l-13.7,12.4c0.9,2.8,1.7,5.6,2.2,8.4l18.7,4.8v13.7
			l-18.7,4.1L277.2,86.3z"/>
	</g>
</g>
</svg>
